PathFileType	4	(X/Y/Z)	C:\Users\italobelli\Desktop\GitHub\PTbot_officialCBL\Personal_Results\ABD02_noisy1.trc
DataRate	CameraRate	NumFrames	NumMarkers	Units	OrigDataRate	OrigDataStartFrame	OrigNumFrames
106.125000	106.125000	47	9	m	106.125000	213	850
Frame#	Time		gu		centelbow		EpL		centpxt8		centijc7		ij		ts		aa		ai
			X1	Y1	Z1	X2	Y2	Z2	X3	Y3	Z3	X4	Y4	Z4	X5	Y5	Z5	X6	Y6	Z6	X7	Y7	Z7	X8	Y8	Z8	X9	Y9	Z9

213	1.9976	-0.099111	0.038551	0.14544	-0.19125	-0.0395	0.37457	-0.20812	-0.012041	0.37382	-0.046816	-0.15316	-0.008669	-0.046816	0.031938	-0.008669	0	0	0	-0.1234	0.00047816	0.030469	-0.13334	0.059283	0.13376	-0.12895	-0.095568	0.090652
214	2.0071	-0.099154	0.039186	0.14517	-0.19145	-0.035684	0.37506	-0.20831	-0.0082003	0.37409	-0.046816	-0.15316	-0.008669	-0.046816	0.031938	-0.008669	0	0	0	-0.1234	0.00023233	0.030525	-0.13342	0.059717	0.13341	-0.12896	-0.095563	0.091362
215	2.0165	-0.099205	0.039834	0.14488	-0.19164	-0.031792	0.37548	-0.2085	-0.0042947	0.37425	-0.046816	-0.15316	-0.008669	-0.046816	0.031938	-0.008669	0	0	0	-0.12342	-9.6035e-06	0.030581	-0.13352	0.060158	0.13304	-0.12898	-0.095531	0.092073
216	2.0259	-0.099263	0.040493	0.14458	-0.19183	-0.027824	0.3758	-0.20867	-0.00032304	0.3743	-0.046816	-0.15316	-0.008669	-0.046816	0.031938	-0.008669	0	0	0	-0.12345	-0.00024821	0.03064	-0.13363	0.060608	0.13267	-0.12902	-0.095474	0.092788
217	2.0353	-0.099328	0.041164	0.14427	-0.19201	-0.023782	0.37605	-0.20884	0.0037111	0.37426	-0.046816	-0.15316	-0.008669	-0.046816	0.031938	-0.008669	0	0	0	-0.12349	-0.00048357	0.0307	-0.13376	0.061066	0.13229	-0.12906	-0.095391	0.093504
218	2.0448	-0.099399	0.041846	0.14395	-0.19218	-0.019672	0.37622	-0.209	0.007804	0.37412	-0.046816	-0.15316	-0.008669	-0.046816	0.031938	-0.008669	0	0	0	-0.12354	-0.00071576	0.030762	-0.13391	0.06153	0.1319	-0.12911	-0.095284	0.094223
219	2.0542	-0.099476	0.042537	0.14362	-0.19235	-0.015496	0.3763	-0.20916	0.011952	0.37389	-0.046816	-0.15316	-0.008669	-0.046816	0.031938	-0.008669	0	0	0	-0.1236	-0.00094485	0.030826	-0.13407	0.062001	0.13151	-0.12917	-0.095153	0.094944
220	2.0636	-0.09956	0.043237	0.14328	-0.19252	-0.011259	0.37632	-0.2093	0.016152	0.37357	-0.046816	-0.15316	-0.008669	-0.046816	0.031938	-0.008669	0	0	0	-0.12367	-0.0011709	0.030891	-0.13424	0.062478	0.1311	-0.12923	-0.095	0.095666
221	2.073	-0.099649	0.043945	0.14293	-0.19268	-0.006964	0.37626	-0.20944	0.0204	0.37316	-0.046816	-0.15316	-0.008669	-0.046816	0.031938	-0.008669	0	0	0	-0.12376	-0.001394	0.030958	-0.13443	0.062961	0.13069	-0.12931	-0.094825	0.09639
222	2.0824	-0.099744	0.044661	0.14256	-0.19283	-0.0026157	0.37612	-0.20957	0.024693	0.37266	-0.046816	-0.15316	-0.008669	-0.046816	0.031938	-0.008669	0	0	0	-0.12385	-0.0016142	0.031026	-0.13463	0.063448	0.13027	-0.12939	-0.094629	0.097114
223	2.0919	-0.099845	0.045383	0.14219	-0.19297	0.0017825	0.37592	-0.20969	0.029027	0.37208	-0.046816	-0.15316	-0.008669	-0.046816	0.031938	-0.008669	0	0	0	-0.12395	-0.0018317	0.031096	-0.13485	0.06394	0.12984	-0.12949	-0.094413	0.097839
224	2.1013	-0.09995	0.046111	0.14181	-0.19311	0.0062267	0.37565	-0.20981	0.033398	0.37142	-0.046816	-0.15316	-0.008669	-0.046816	0.031938	-0.008669	0	0	0	-0.12406	-0.0020464	0.031167	-0.13507	0.064435	0.12941	-0.12959	-0.094178	0.098564
225	2.1107	-0.10006	0.046844	0.14142	-0.19325	0.010713	0.37531	-0.20992	0.037803	0.37068	-0.046816	-0.15316	-0.008669	-0.046816	0.031938	-0.008669	0	0	0	-0.12418	-0.0022584	0.031239	-0.13531	0.064933	0.12897	-0.12969	-0.093925	0.09929
226	2.1201	-0.10018	0.047582	0.14102	-0.19337	0.015238	0.3749	-0.21001	0.042238	0.36987	-0.046816	-0.15316	-0.008669	-0.046816	0.031938	-0.008669	0	0	0	-0.12431	-0.0024678	0.031314	-0.13556	0.065435	0.12852	-0.1298	-0.093654	0.10001
227	2.1296	-0.1003	0.048322	0.14061	-0.1935	0.019797	0.37444	-0.2101	0.0467	0.36898	-0.046816	-0.15316	-0.008669	-0.046816	0.031938	-0.008669	0	0	0	-0.12445	-0.0026748	0.031389	-0.13582	0.065938	0.12807	-0.12992	-0.093367	0.10074
228	2.139	-0.10042	0.049065	0.1402	-0.19361	0.024386	0.37391	-0.21019	0.051185	0.36803	-0.046816	-0.15316	-0.008669	-0.046816	0.031938	-0.008669	0	0	0	-0.12459	-0.0028793	0.031466	-0.13608	0.066443	0.12761	-0.13005	-0.093064	0.10146
229	2.1484	-0.10055	0.04981	0.13978	-0.19372	0.029003	0.37333	-0.21026	0.05569	0.36701	-0.046816	-0.15316	-0.008669	-0.046816	0.031938	-0.008669	0	0	0	-0.12474	-0.0030814	0.031545	-0.13636	0.066949	0.12715	-0.13018	-0.092746	0.10218
230	2.1578	-0.10068	0.050556	0.13935	-0.19382	0.033642	0.37268	-0.21033	0.06021	0.36592	-0.046816	-0.15316	-0.008669	-0.046816	0.031938	-0.008669	0	0	0	-0.1249	-0.0032813	0.031624	-0.13665	0.067455	0.12669	-0.13032	-0.092414	0.1029
231	2.1673	-0.10081	0.051302	0.13892	-0.19392	0.038301	0.37198	-0.21038	0.064743	0.36477	-0.046816	-0.15316	-0.008669	-0.046816	0.031938	-0.008669	0	0	0	-0.12506	-0.0034789	0.031705	-0.13695	0.067961	0.12622	-0.13047	-0.092069	0.10362
232	2.1767	-0.10095	0.052047	0.13847	-0.194	0.042974	0.37123	-0.21043	0.069285	0.36356	-0.046816	-0.15316	-0.008669	-0.046816	0.031938	-0.008669	0	0	0	-0.12523	-0.0036744	0.031788	-0.13725	0.068466	0.12575	-0.13061	-0.091712	0.10434
233	2.1861	-0.10109	0.052791	0.13803	-0.19409	0.047659	0.37043	-0.21047	0.073831	0.3623	-0.046816	-0.15316	-0.008669	-0.046816	0.031938	-0.008669	0	0	0	-0.1254	-0.0038678	0.031871	-0.13756	0.068971	0.12528	-0.13077	-0.091344	0.10505
234	2.1955	-0.10124	0.053533	0.13758	-0.19416	0.052352	0.36957	-0.21051	0.07838	0.36098	-0.046816	-0.15316	-0.008669	-0.046816	0.031938	-0.008669	0	0	0	-0.12558	-0.0040593	0.031956	-0.13788	0.069473	0.1248	-0.13093	-0.090965	0.10577
235	2.2049	-0.10138	0.054271	0.13712	-0.19423	0.057048	0.36867	-0.21053	0.082927	0.35961	-0.046816	-0.15316	-0.008669	-0.046816	0.031938	-0.008669	0	0	0	-0.12576	-0.0042488	0.032043	-0.1382	0.069973	0.12432	-0.13109	-0.090576	0.10647
236	2.2144	-0.10153	0.055006	0.13666	-0.19429	0.061744	0.36773	-0.21054	0.087468	0.35819	-0.046816	-0.15316	-0.008669	-0.046816	0.031938	-0.008669	0	0	0	-0.12595	-0.0044365	0.03213	-0.13853	0.07047	0.12384	-0.13126	-0.090179	0.10718
237	2.2238	-0.10168	0.055736	0.1362	-0.19434	0.066436	0.36674	-0.21055	0.091999	0.35673	-0.046816	-0.15316	-0.008669	-0.046816	0.031938	-0.008669	0	0	0	-0.12614	-0.0046223	0.032219	-0.13886	0.070964	0.12336	-0.13143	-0.089773	0.10788
238	2.2332	-0.10183	0.05646	0.13573	-0.19439	0.071121	0.3657	-0.21055	0.096519	0.35522	-0.046816	-0.15316	-0.008669	-0.046816	0.031938	-0.008669	0	0	0	-0.12633	-0.0048065	0.032308	-0.1392	0.071454	0.12287	-0.13161	-0.089361	0.10858
239	2.2426	-0.10199	0.057179	0.13526	-0.19443	0.075793	0.36463	-0.21054	0.10102	0.35368	-0.046816	-0.15316	-0.008669	-0.046816	0.031938	-0.008669	0	0	0	-0.12653	-0.0049891	0.032399	-0.13954	0.07194	0.12239	-0.13178	-0.088942	0.10927
240	2.2521	-0.10214	0.05789	0.13478	-0.19446	0.08045	0.36352	-0.21052	0.1055	0.35209	-0.046816	-0.15316	-0.008669	-0.046816	0.031938	-0.008669	0	0	0	-0.12673	-0.0051701	0.032491	-0.13989	0.07242	0.12191	-0.13197	-0.088518	0.10996
241	2.2615	-0.1023	0.058593	0.13431	-0.19449	0.085087	0.36237	-0.21049	0.10996	0.35047	-0.046816	-0.15316	-0.008669	-0.046816	0.031938	-0.008669	0	0	0	-0.12693	-0.0053497	0.032584	-0.14023	0.072895	0.12142	-0.13215	-0.08809	0.11064
242	2.2709	-0.10245	0.059288	0.13383	-0.1945	0.089702	0.36119	-0.21045	0.1144	0.34882	-0.046816	-0.15316	-0.008669	-0.046816	0.031938	-0.008669	0	0	0	-0.12713	-0.0055278	0.032679	-0.14058	0.073363	0.12094	-0.13234	-0.087658	0.11132
243	2.2803	-0.10261	0.059974	0.13335	-0.19451	0.094289	0.35997	-0.2104	0.1188	0.34713	-0.046816	-0.15316	-0.008669	-0.046816	0.031938	-0.008669	0	0	0	-0.12734	-0.0057046	0.032774	-0.14094	0.073825	0.12046	-0.13253	-0.087223	0.112
244	2.2898	-0.10277	0.060649	0.13287	-0.19451	0.098845	0.35873	-0.21035	0.12317	0.34542	-0.046816	-0.15316	-0.008669	-0.046816	0.031938	-0.008669	0	0	0	-0.12754	-0.0058802	0.03287	-0.14129	0.074279	0.11998	-0.13272	-0.086786	0.11266
245	2.2992	-0.10293	0.061313	0.13239	-0.19451	0.10337	0.35745	-0.21028	0.1275	0.34369	-0.046816	-0.15316	-0.008669	-0.046816	0.031938	-0.008669	0	0	0	-0.12775	-0.0060546	0.032968	-0.14165	0.074726	0.1195	-0.13291	-0.086349	0.11332
246	2.3086	-0.10309	0.061965	0.1319	-0.19449	0.10785	0.35615	-0.21021	0.13179	0.34193	-0.046816	-0.15316	-0.008669	-0.046816	0.031938	-0.008669	0	0	0	-0.12795	-0.0062278	0.033066	-0.142	0.075164	0.11903	-0.13311	-0.085911	0.11398
247	2.318	-0.10324	0.062604	0.13142	-0.19447	0.11229	0.35482	-0.21012	0.13603	0.34016	-0.046816	-0.15316	-0.008669	-0.046816	0.031938	-0.008669	0	0	0	-0.12815	-0.0064	0.033165	-0.14235	0.075594	0.11855	-0.13331	-0.085474	0.11463
248	2.3274	-0.1034	0.063231	0.13094	-0.19444	0.11668	0.35347	-0.21003	0.14023	0.33836	-0.046816	-0.15316	-0.008669	-0.046816	0.031938	-0.008669	0	0	0	-0.12836	-0.0065713	0.033265	-0.14271	0.076013	0.11808	-0.13351	-0.085038	0.11527
249	2.3369	-0.10356	0.063842	0.13046	-0.19441	0.12103	0.3521	-0.20993	0.14437	0.33656	-0.046816	-0.15316	-0.008669	-0.046816	0.031938	-0.008669	0	0	0	-0.12856	-0.0067417	0.033366	-0.14306	0.076423	0.11761	-0.1337	-0.084605	0.1159
250	2.3463	-0.10371	0.064439	0.12998	-0.19436	0.12532	0.3507	-0.20981	0.14846	0.33474	-0.046816	-0.15316	-0.008669	-0.046816	0.031938	-0.008669	0	0	0	-0.12876	-0.0069113	0.033468	-0.14341	0.076822	0.11715	-0.1339	-0.084175	0.11653
251	2.3557	-0.10387	0.06502	0.1295	-0.19431	0.12955	0.34929	-0.20969	0.15249	0.33291	-0.046816	-0.15316	-0.008669	-0.046816	0.031938	-0.008669	0	0	0	-0.12896	-0.0070801	0.033571	-0.14376	0.07721	0.11669	-0.1341	-0.083749	0.11715
252	2.3651	-0.10402	0.065584	0.12903	-0.19424	0.13372	0.34787	-0.20956	0.15645	0.33108	-0.046816	-0.15316	-0.008669	-0.046816	0.031938	-0.008669	0	0	0	-0.12915	-0.0072482	0.033675	-0.1441	0.077587	0.11624	-0.1343	-0.083329	0.11776
253	2.3746	-0.10417	0.066131	0.12856	-0.19417	0.13782	0.34643	-0.20942	0.16035	0.32924	-0.046816	-0.15316	-0.008669	-0.046816	0.031938	-0.008669	0	0	0	-0.12935	-0.0074158	0.03378	-0.14444	0.077951	0.11579	-0.1345	-0.082914	0.11836
254	2.384	-0.10432	0.06666	0.12809	-0.1941	0.14186	0.34498	-0.20927	0.16418	0.32741	-0.046816	-0.15316	-0.008669	-0.046816	0.031938	-0.008669	0	0	0	-0.12954	-0.0075829	0.033885	-0.14478	0.078302	0.11534	-0.1347	-0.082506	0.11895
255	2.3934	-0.10446	0.067169	0.12762	-0.19401	0.14582	0.34351	-0.20911	0.16794	0.32557	-0.046816	-0.15316	-0.008669	-0.046816	0.031938	-0.008669	0	0	0	-0.12972	-0.0077495	0.033991	-0.14511	0.07864	0.1149	-0.1349	-0.082105	0.11953
256	2.4028	-0.10461	0.067659	0.12716	-0.19391	0.14971	0.34204	-0.20894	0.17162	0.32374	-0.046816	-0.15316	-0.008669	-0.046816	0.031938	-0.008669	0	0	0	-0.1299	-0.0079157	0.034098	-0.14543	0.078964	0.11447	-0.1351	-0.081713	0.12011
257	2.4122	-0.10475	0.068128	0.1267	-0.19381	0.15351	0.34057	-0.20876	0.17522	0.32192	-0.046816	-0.15316	-0.008669	-0.046816	0.031938	-0.008669	0	0	0	-0.13008	-0.0080816	0.034206	-0.14575	0.079274	0.11405	-0.13529	-0.081331	0.12067
258	2.4217	-0.10488	0.068575	0.12624	-0.1937	0.15723	0.33908	-0.20857	0.17873	0.32011	-0.046816	-0.15316	-0.008669	-0.046816	0.031938	-0.008669	0	0	0	-0.13025	-0.0082473	0.034314	-0.14607	0.079568	0.11363	-0.13548	-0.080958	0.12122
259	2.4311	-0.10502	0.069	0.12579	-0.19357	0.16086	0.3376	-0.20837	0.18216	0.31831	-0.046816	-0.15316	-0.008669	-0.046816	0.031938	-0.008669	0	0	0	-0.13042	-0.0084129	0.034423	-0.14638	0.079847	0.11322	-0.13568	-0.080597	0.12177
